<svg width="38" height="17" viewBox="0 0 38 17" fill="none" xmlns="http://www.w3.org/2000/svg">
<path d="M1 17C0.447715 17 0 16.5523 0 16C0 15.4477 0.447715 15 1 15H7C7 13.7997 7.17622 12.6406 7.5042 11.5471L4.91479 10.4039C4.40955 10.1808 4.26975 9.64269 4.60253 9.20192C4.93531 8.76115 5.61465 8.58466 6.11989 8.80773L8.21482 9.73265C8.83637 8.46239 9.67571 7.31813 10.6842 6.34853L8.62546 3.78026C8.28003 3.34933 8.40353 2.80607 8.90132 2.56684C9.3991 2.3276 10.0827 2.483 10.4281 2.91393L12.1932 5.11594C13.8697 3.95925 15.8548 3.21805 18 3.04107V1C18 0.447716 18.4477 0 19 0C19.5523 0 20 0.447716 20 1V3.04107C22.1452 3.21804 24.1303 3.95925 25.8068 5.11594L27.5719 2.91393C27.9173 2.483 28.6009 2.3276 29.0987 2.56684C29.5965 2.80607 29.72 3.34933 29.3745 3.78026L27.3158 6.34853C28.2976 7.29248 29.1191 8.40196 29.7354 9.63208L31.6025 8.80773C32.1078 8.58466 32.7871 8.76115 33.1199 9.20192C33.4527 9.64269 33.3129 10.1808 32.8076 10.4039L30.4628 11.4391C30.812 12.5642 31 13.7601 31 15H37C37.5523 15 38 15.4477 38 16C38 16.5523 37.5523 17 37 17H1Z" fill="rgba(26, 26, 26, 0.9)"/>
</svg>
